<?xml version="1.0" standalone="no"?>
<!-- Generator: Adobe Fireworks 10, Export SVG Extension by Aaron Beall (http://fireworks.abeall.com) . Version: 0.6.1  -->
<!DOCTYPE svg PUBLIC "-//W3C//DTD SVG 1.1//EN" "http://www.w3.org/Graphics/SVG/1.1/DTD/svg11.dtd">
<svg id="Untitled-P%E1gina%201" viewBox="0 0 3000 3000" style="background-color:#ffffff00" version="1.1"
	xmlns="http://www.w3.org/2000/svg" xmlns:xlink="http://www.w3.org/1999/xlink" xml:space="preserve"
	x="0px" y="0px" width="3000px" height="3000px"
>
	<g id="Camada%201">
		<path d="M 2790.8691 -0.5 C 2805.6641 -0.5 2820.4592 6.9074 2827.8567 6.9074 C 2887.0371 73.5741 2998 132.8333 2998 214.3148 L 2998 2806.9077 C 2975.8074 2858.7595 2827.8567 2999.5002 2805.6641 2999.5002 L 186.9383 2999.5002 C 135.1556 2984.6855 2 2829.1299 2 2829.1299 L 2 177.2778 C 61.1803 103.2037 142.5531 14.3148 201.7334 -0.5 L 2790.8691 -0.5 ZM 934.0889 703.2037 C 934.0889 725.426 934.0889 747.6482 926.6913 769.8704 C 911.8962 821.7222 845.3185 903.2037 786.1383 918.0186 C 763.9458 925.426 726.9581 925.426 704.7654 925.426 C 564.2124 925.426 482.8395 836.537 482.8395 703.2037 C 482.8395 569.8704 564.2124 473.5741 704.7654 473.5741 C 830.5236 473.5741 934.0889 592.0927 934.0889 703.2037 ZM 2154.6816 1147.6482 C 2191.6692 1155.0557 2228.6567 1162.463 2265.6445 1184.6853 C 2295.2346 1214.3149 2347.0173 1243.9445 2369.21 1280.9816 C 2406.1975 1332.8334 2435.7878 1399.5001 2450.5828 1473.5742 C 2472.7754 1540.2408 2472.7754 1621.7223 2487.5706 1695.7964 L 2494.968 2429.1296 C 2487.5706 2443.9446 2480.1729 2473.5742 2465.3779 2488.3889 L 2132.489 2488.3889 C 2102.8987 2466.1667 2088.1038 2429.1296 2088.1038 2429.1296 C 2088.1038 2414.3149 2095.5012 2392.0928 2102.8987 2377.2778 L 2102.8987 1718.0186 C 2080.7063 1503.2039 1984.5383 1458.7594 1836.5876 1458.7594 C 1733.0223 1458.7594 1696.0345 1473.5742 1614.6617 1606.9075 C 1599.8666 1629.1296 1577.6742 1651.3519 1577.6742 1673.5741 L 1577.6742 2384.6853 C 1585.0717 2406.9075 1592.4691 2414.3149 1592.4691 2436.5371 C 1592.4691 2503.2039 1414.9283 2488.3889 1400.1335 2488.3889 C 1377.9409 2488.3889 1193.0024 2503.2039 1193.0024 2436.5371 C 1193.0024 2414.3149 1200.4001 2406.9075 1207.7976 2392.0928 L 1200.4001 1295.7964 C 1185.605 1221.7223 1207.7976 1169.8704 1281.7729 1169.8704 C 1466.7111 1147.6482 1488.9037 1162.463 1511.0963 1162.463 C 1607.2643 1162.463 1525.8915 1310.6112 1629.4569 1310.6112 C 1681.2396 1310.6112 1733.0223 1206.9075 1762.6124 1192.0927 C 1777.4075 1177.2778 1806.9976 1155.0557 1843.9851 1147.6482 C 1880.9729 1140.2407 1969.7432 1132.8334 1991.9358 1132.8334 C 2006.731 1132.8334 2102.8987 1140.2407 2154.6816 1147.6482 ZM 793.5359 1169.8704 C 823.126 1169.8704 897.1012 1162.463 897.1012 1221.7223 L 904.4988 2429.1296 C 904.4988 2436.5371 889.7037 2488.3889 860.1135 2488.3889 L 527.2247 2488.3889 C 512.4297 2473.5742 497.6345 2451.3521 497.6345 2436.5371 L 505.0321 1214.3149 C 519.8271 1184.6853 534.6222 1162.463 564.2124 1162.463 C 579.0074 1162.463 601.2001 1162.463 793.5359 1169.8704 Z" fill="#ff0000"/>
	</g>
</svg>