<?xml version="1.0" standalone="no"?>
<!-- Generator: Adobe Fireworks 10, Export SVG Extension by Aaron Beall (http://fireworks.abeall.com) . Version: 0.6.1  -->
<!DOCTYPE svg PUBLIC "-//W3C//DTD SVG 1.1//EN" "http://www.w3.org/Graphics/SVG/1.1/DTD/svg11.dtd">
<svg id="Untitled-P%E1gina%202" viewBox="0 0 3000 3000" style="background-color:#ffffff00" version="1.1"
	xmlns="http://www.w3.org/2000/svg" xmlns:xlink="http://www.w3.org/1999/xlink" xml:space="preserve"
	x="0px" y="0px" width="3000px" height="3000px"
>
	<g id="Camada%2012">
		<path d="M 2769.968 0 C 2827.4761 9.5847 3000 124.6006 3000 210.8626 L 3000 2779.5527 C 2971.2458 2817.8914 2856.23 3000 2769.968 3000 L 2242.8115 3000 C 2137.3801 2990.4153 2108.6262 2952.0767 2108.6262 2884.9839 L 2118.2109 1964.8562 C 2127.7954 1667.7316 2520.7666 1974.4409 2559.1055 1629.3929 C 2559.1055 1581.4696 2587.8594 1495.2076 2587.8594 1466.4536 C 2587.8594 1217.2523 2108.6262 1476.0383 2108.6262 1246.0063 C 2108.6262 1217.2523 2118.2109 1140.5751 2118.2109 1083.067 C 2099.0415 1006.3898 2185.3035 862.6198 2281.1501 833.8658 C 2376.9968 805.1118 2549.5208 900.9585 2607.0288 738.0192 L 2607.0288 488.8179 C 2568.6899 450.4792 2520.7666 392.9713 2482.428 392.9713 C 2453.6741 392.9713 2453.6741 402.5559 2146.9648 402.5559 C 2099.0415 412.1406 2041.5334 392.9713 2003.1948 421.7252 C 1916.9329 460.0639 1792.3323 536.7412 1744.4089 623.0032 C 1715.6549 661.3419 1686.9009 709.2651 1658.147 766.7731 C 1638.9777 785.9425 1638.9777 833.8658 1638.9777 872.2045 C 1638.9777 977.6357 1638.9777 1178.9137 1638.9777 1207.6677 C 1638.9777 1332.2683 1600.6389 1361.0223 1495.2076 1361.0223 C 1476.0383 1361.0223 1361.0223 1341.853 1341.853 1341.853 C 1178.9137 1341.853 1217.2523 1514.377 1217.2523 1562.3003 C 1217.2523 1629.3929 1198.083 1830.6709 1351.4376 1830.6709 C 1370.6071 1830.6709 1495.2076 1801.9169 1523.9617 1801.9169 C 1619.8082 1801.9169 1638.9777 1945.6868 1638.9777 1984.0256 L 1638.9777 2923.3225 C 1629.3929 2952.0767 1591.0543 3000 1562.3003 3000 L 220.4473 3000 C 182.1086 2980.8306 134.1853 2952.0767 105.4313 2923.3225 C 57.508 2884.9839 0 2789.1372 0 2769.968 L 0 220.4473 C 28.754 134.1853 124.6006 19.1693 230.032 0 L 2769.968 0 Z" fill="#ff0000"/>
	</g>
</svg>